<svg width="51" height="35" viewBox="0 0 51 35" fill="none" xmlns="http://www.w3.org/2000/svg">
<path fill-rule="evenodd" clip-rule="evenodd" d="M13 0.375H38C41.3152 0.375 44.4946 1.69196 46.8388 4.03616C49.183 6.38037 50.5 9.55979 50.5 12.875V22.25C50.5 25.5652 49.183 28.7446 46.8388 31.0888C44.4946 33.433 41.3152 34.75 38 34.75H13C9.68479 34.75 6.50537 33.433 4.16117 31.0888C1.81696 28.7446 0.5 25.5652 0.5 22.25V12.875C0.5 9.55979 1.81696 6.38037 4.16117 4.03616C6.50537 1.69196 9.68479 0.375 13 0.375ZM13 3.5C10.5136 3.5 8.12903 4.48772 6.37087 6.24587C4.61272 8.00403 3.625 10.3886 3.625 12.875V22.25C3.625 24.7364 4.61272 27.121 6.37087 28.8791C8.12903 30.6373 10.5136 31.625 13 31.625H38C40.4864 31.625 42.871 30.6373 44.6291 28.8791C46.3873 27.121 47.375 24.7364 47.375 22.25V12.875C47.375 10.3886 46.3873 8.00403 44.6291 6.24587C42.871 4.48772 40.4864 3.5 38 3.5H13Z" fill="#0FA958"/>
<path d="M17.6875 9.75C17.2731 9.75 16.8757 9.91462 16.5826 10.2076C16.2896 10.5007 16.125 10.8981 16.125 11.3125V16H11.4375C11.0231 16 10.6257 16.1646 10.3326 16.4576C10.0396 16.7507 9.875 17.1481 9.875 17.5625C9.875 17.9769 10.0396 18.3743 10.3326 18.6674C10.6257 18.9604 11.0231 19.125 11.4375 19.125H16.125V23.8125C16.125 24.2269 16.2896 24.6243 16.5826 24.9174C16.8757 25.2104 17.2731 25.375 17.6875 25.375C18.1019 25.375 18.4993 25.2104 18.7924 24.9174C19.0854 24.6243 19.25 24.2269 19.25 23.8125V19.125H23.9375C24.3519 19.125 24.7493 18.9604 25.0424 18.6674C25.3354 18.3743 25.5 17.9769 25.5 17.5625C25.5 17.1481 25.3354 16.7507 25.0424 16.4576C24.7493 16.1646 24.3519 16 23.9375 16H19.25V11.3125C19.25 10.8981 19.0854 10.5007 18.7924 10.2076C18.4993 9.91462 18.1019 9.75 17.6875 9.75ZM41.125 12.875C41.125 13.7038 40.7958 14.4987 40.2097 15.0847C39.6237 15.6708 38.8288 16 38 16C37.1712 16 36.3763 15.6708 35.7903 15.0847C35.2042 14.4987 34.875 13.7038 34.875 12.875C34.875 12.0462 35.2042 11.2513 35.7903 10.6653C36.3763 10.0792 37.1712 9.75 38 9.75C38.8288 9.75 39.6237 10.0792 40.2097 10.6653C40.7958 11.2513 41.125 12.0462 41.125 12.875ZM38 22.25C38 23.0788 37.6708 23.8737 37.0847 24.4597C36.4987 25.0458 35.7038 25.375 34.875 25.375C34.0462 25.375 33.2513 25.0458 32.6653 24.4597C32.0792 23.8737 31.75 23.0788 31.75 22.25C31.75 21.4212 32.0792 20.6263 32.6653 20.0403C33.2513 19.4542 34.0462 19.125 34.875 19.125C35.7038 19.125 36.4987 19.4542 37.0847 20.0403C37.6708 20.6263 38 21.4212 38 22.25Z" fill="#0FA958"/>
</svg>
