<svg width="40" height="40" viewBox="0 0 40 40" fill="none" xmlns="http://www.w3.org/2000/svg">
<path d="M17.7668 17.7666C17.1723 18.3581 16.8366 19.1613 16.8335 19.9999C16.8335 20.8398 17.1671 21.6452 17.761 22.2391C18.3549 22.833 19.1603 23.1666 20.0002 23.1666C20.8388 23.1635 21.642 22.8278 22.2335 22.2333" stroke="#009831" stroke-width="1.5" stroke-linecap="round" stroke-linejoin="round"/>
<path d="M20 10.5C18.1211 10.5 16.2844 11.0572 14.7221 12.101C13.1598 13.1449 11.9422 14.6286 11.2231 16.3645C10.5041 18.1004 10.316 20.0105 10.6825 21.8534C11.0491 23.6962 11.9539 25.3889 13.2825 26.7175C14.6111 28.0461 16.3038 28.9509 18.1466 29.3175C19.9895 29.684 21.8996 29.4959 23.6355 28.7769C25.3714 28.0578 26.8551 26.8402 27.899 25.2779C28.9428 23.7156 29.5 21.8789 29.5 20" stroke="#009831" stroke-width="1.5" stroke-linecap="round" stroke-linejoin="round"/>
<path d="M20.0001 4.16663C16.8686 4.16663 13.8073 5.09523 11.2036 6.83502C8.59978 8.57481 6.57038 11.0476 5.372 13.9408C4.17361 16.834 3.86006 20.0175 4.47099 23.0889C5.08192 26.1603 6.5899 28.9815 8.80423 31.1958C11.0186 33.4101 13.8398 34.9181 16.9112 35.5291C19.9825 36.14 23.1661 35.8264 26.0592 34.6281C28.9524 33.4297 31.4252 31.4003 33.165 28.7965C34.9048 26.1927 35.8334 23.1315 35.8334 20M25.8751 14.1266L21.5834 18.4166" stroke="#009831" stroke-width="1.5" stroke-linecap="round" stroke-linejoin="round"/>
<path d="M34.9001 9.73996L29.5001 10.5L30.2601 5.09995C30.2657 5.03723 30.2524 4.97427 30.2221 4.91912C30.1917 4.86396 30.1455 4.81912 30.0895 4.79032C30.0335 4.76152 29.9702 4.75006 29.9077 4.75742C29.8452 4.76478 29.7862 4.79061 29.7385 4.83162L26.1585 8.39329C25.7907 8.76366 25.5203 9.21917 25.3711 9.7193C25.2219 10.2194 25.1987 10.7487 25.3035 11.26L25.8735 14.1266L28.7401 14.695C29.2514 14.7997 29.7806 14.7765 30.2808 14.6273C30.7809 14.4781 31.2364 14.2077 31.6068 13.84L35.1668 10.2616C35.2079 10.2137 35.2338 10.1546 35.2412 10.0919C35.2485 10.0292 35.2369 9.96573 35.2079 9.90966C35.1788 9.85358 35.1337 9.80746 35.0783 9.77722C35.0229 9.74698 34.9596 9.734 34.8968 9.73996" stroke="#009831" stroke-width="1.5" stroke-linecap="round" stroke-linejoin="round"/>
</svg>
