<svg width="40" height="40" viewBox="0 0 40 40" fill="none" xmlns="http://www.w3.org/2000/svg">
<path d="M40 0V15.3846H37.5V6.34615L20 17.0913L2.5 6.34615V27.6923H20V30.7692H0V0H40ZM20 13.6779L37.207 3.07692H2.79297L20 13.6779ZM31.25 18.4615C32.1094 18.4615 32.9167 18.6619 33.6719 19.0625C34.4271 19.4631 35.0846 20.016 35.6445 20.7212C36.2044 21.4263 36.6536 22.2436 36.9922 23.1731C37.3307 24.1026 37.5 25.0962 37.5 26.1538V30.7692H40V33.8462H35V35.3846C35 36.0256 34.9023 36.6266 34.707 37.1875C34.5117 37.7484 34.2448 38.2372 33.9062 38.6538C33.5677 39.0705 33.1706 39.399 32.7148 39.6394C32.2591 39.8798 31.7708 40 31.25 40C30.7292 40 30.2409 39.8798 29.7852 39.6394C29.3294 39.399 28.9323 39.0705 28.5938 38.6538C28.2552 38.2372 27.9883 37.7484 27.793 37.1875C27.5977 36.6266 27.5 36.0256 27.5 35.3846V33.8462H22.5V30.7692H25V26.1538C25 25.0962 25.1628 24.1026 25.4883 23.1731C25.8138 22.2436 26.2565 21.4343 26.8164 20.7452C27.3763 20.0561 28.0404 19.5032 28.8086 19.0865C29.5768 18.6699 30.3906 18.4615 31.25 18.4615ZM32.5 33.8462H30V35.3846C30 35.8013 30.1237 36.1619 30.3711 36.4663C30.6185 36.7708 30.9115 36.9231 31.25 36.9231C31.5885 36.9231 31.8815 36.7708 32.1289 36.4663C32.3763 36.1619 32.5 35.8013 32.5 35.3846V33.8462ZM35 30.7692V26.1538C35 25.5128 34.9023 24.9119 34.707 24.351C34.5117 23.7901 34.2448 23.3013 33.9062 22.8846C33.5677 22.4679 33.1706 22.1394 32.7148 21.899C32.2591 21.6587 31.7708 21.5385 31.25 21.5385C30.7292 21.5385 30.2409 21.6587 29.7852 21.899C29.3294 22.1394 28.9323 22.4679 28.5938 22.8846C28.2552 23.3013 27.9883 23.7901 27.793 24.351C27.5977 24.9119 27.5 25.5128 27.5 26.1538V30.7692H35Z" fill="#41D1DA"/>
</svg>
