<svg width="40" height="40" viewBox="0 0 40 40" fill="none" xmlns="http://www.w3.org/2000/svg">
<path d="M9.99992 6.66663C9.99992 6.00358 10.2633 5.3677 10.7322 4.89886C11.201 4.43002 11.8369 4.16663 12.4999 4.16663C13.163 4.16663 13.7988 4.43002 14.2677 4.89886C14.7365 5.3677 14.9999 6.00358 14.9999 6.66663C14.9999 7.32967 14.7365 7.96555 14.2677 8.43439C13.7988 8.90323 13.163 9.16663 12.4999 9.16663C11.8369 9.16663 11.201 8.90323 10.7322 8.43439C10.2633 7.96555 9.99992 7.32967 9.99992 6.66663ZM12.4999 1.66663C11.8433 1.66663 11.1931 1.79595 10.5865 2.04723C9.97987 2.2985 9.42868 2.6668 8.96438 3.13109C8.50009 3.59539 8.13179 4.14658 7.88052 4.75321C7.62925 5.35984 7.49992 6.01002 7.49992 6.66663C7.49992 7.32324 7.62925 7.97342 7.88052 8.58004C8.13179 9.18667 8.50009 9.73787 8.96438 10.2022C9.42868 10.6665 9.97987 11.0347 10.5865 11.286C11.1931 11.5373 11.8433 11.6666 12.4999 11.6666C13.826 11.6666 15.0978 11.1398 16.0355 10.2022C16.9731 9.26448 17.4999 7.99271 17.4999 6.66663C17.4999 5.34054 16.9731 4.06877 16.0355 3.13109C15.0978 2.19341 13.826 1.66663 12.4999 1.66663ZM3.33325 16.28C3.33325 14.65 4.65159 13.3333 6.27992 13.3333H14.2249C13.7812 14.1024 13.4956 14.9523 13.3849 15.8333H6.27992C6.16172 15.8342 6.04862 15.8815 5.96504 15.9651C5.88146 16.0487 5.83412 16.1618 5.83325 16.28V16.875C5.83325 17.1116 5.83825 18.5416 6.64492 19.8833C7.29325 20.9633 8.55658 22.15 11.2283 22.435C10.4283 22.9683 9.80159 23.745 9.45825 24.66C6.96159 24.05 5.41325 22.6883 4.50159 21.1716C3.33325 19.2266 3.33325 17.2266 3.33325 16.8783V16.28ZM26.6166 15.8333C26.5053 14.9522 26.2192 14.1022 25.7749 13.3333H33.7199C35.3499 13.3333 36.6666 14.6516 36.6666 16.28V16.88C36.6666 17.1916 36.6666 18.855 35.8066 20.6066C35.1429 20.0902 34.4214 19.6528 33.6566 19.3033C33.9894 18.5368 34.1629 17.7106 34.1666 16.875V16.28C34.1657 16.1618 34.1184 16.0487 34.0348 15.9651C33.9512 15.8815 33.8381 15.8342 33.7199 15.8333H26.6166ZM24.0316 19.625C24.424 19.0959 24.7081 18.4945 24.8674 17.8553C25.0267 17.2161 25.0581 16.5517 24.9599 15.9003C24.8616 15.2489 24.6356 14.6234 24.2948 14.0596C23.954 13.4959 23.5052 13.005 22.9742 12.6152C22.4431 12.2255 21.8402 11.9445 21.2002 11.7884C20.5602 11.6324 19.8957 11.6043 19.2449 11.7059C18.594 11.8075 17.9696 12.0367 17.4076 12.3803C16.8456 12.7239 16.357 13.1753 15.9699 13.7083C15.1933 14.7778 14.8718 16.1112 15.0756 17.4171C15.2794 18.7229 15.9919 19.895 17.0574 20.677C18.1229 21.459 19.4547 21.7873 20.7616 21.5902C22.0685 21.393 23.2442 20.6865 24.0316 19.625ZM20.0366 23.3333H13.7799C12.1516 23.3333 10.8333 24.6516 10.8333 26.28V26.88C10.8333 27.225 10.8333 29.2266 11.9999 31.1716C13.2383 33.2283 15.6449 35 19.9999 35H20.0366C19.5276 34.2047 19.1247 33.3463 18.8383 32.4466C16.0899 32.18 14.8016 30.9766 14.1449 29.8833C13.3383 28.5416 13.3333 27.1116 13.3333 26.875V26.28C13.3333 26.0333 13.5333 25.8333 13.7799 25.8333H18.8549C19.1404 24.9529 19.5375 24.1127 20.0366 23.3333ZM27.4999 4.16663C26.8369 4.16663 26.201 4.43002 25.7322 4.89886C25.2633 5.3677 24.9999 6.00358 24.9999 6.66663C24.9999 7.32967 25.2633 7.96555 25.7322 8.43439C26.201 8.90323 26.8369 9.16663 27.4999 9.16663C28.163 9.16663 28.7988 8.90323 29.2677 8.43439C29.7365 7.96555 29.9999 7.32967 29.9999 6.66663C29.9999 6.00358 29.7365 5.3677 29.2677 4.89886C28.7988 4.43002 28.163 4.16663 27.4999 4.16663ZM22.4999 6.66663C22.4999 5.34054 23.0267 4.06877 23.9644 3.13109C24.9021 2.19341 26.1738 1.66663 27.4999 1.66663C28.826 1.66663 30.0978 2.19341 31.0355 3.13109C31.9731 4.06877 32.4999 5.34054 32.4999 6.66663C32.4999 7.99271 31.9731 9.26448 31.0355 10.2022C30.0978 11.1398 28.826 11.6666 27.4999 11.6666C26.1738 11.6666 24.9021 11.1398 23.9644 10.2022C23.0267 9.26448 22.4999 7.99271 22.4999 6.66663ZM17.4999 16.6666C17.4999 16.0036 17.7633 15.3677 18.2322 14.8989C18.701 14.43 19.3369 14.1666 19.9999 14.1666C20.663 14.1666 21.2988 14.43 21.7677 14.8989C22.2365 15.3677 22.4999 16.0036 22.4999 16.6666C22.4999 17.3297 22.2365 17.9656 21.7677 18.4344C21.2988 18.9032 20.663 19.1666 19.9999 19.1666C19.3369 19.1666 18.701 18.9032 18.2322 18.4344C17.7633 17.9656 17.4999 17.3297 17.4999 16.6666ZM29.1666 20C31.5977 20 33.9293 20.9657 35.6484 22.6848C37.3675 24.4039 38.3333 26.7355 38.3333 29.1666C38.3333 31.5978 37.3675 33.9294 35.6484 35.6484C33.9293 37.3675 31.5977 38.3333 29.1666 38.3333C26.7354 38.3333 24.4039 37.3675 22.6848 35.6484C20.9657 33.9294 19.9999 31.5978 19.9999 29.1666C19.9999 26.7355 20.9657 24.4039 22.6848 22.6848C24.4039 20.9657 26.7354 20 29.1666 20ZM30.0016 34.1716V30H34.1616C34.3826 30 34.5946 29.9122 34.7508 29.7559C34.9071 29.5996 34.9949 29.3876 34.9949 29.1666C34.9949 28.9456 34.9071 28.7337 34.7508 28.5774C34.5946 28.4211 34.3826 28.3333 34.1616 28.3333H29.9999V24.1666C29.9999 23.9456 29.9121 23.7337 29.7558 23.5774C29.5996 23.4211 29.3876 23.3333 29.1666 23.3333C28.9456 23.3333 28.7336 23.4211 28.5773 23.5774C28.421 23.7337 28.3333 23.9456 28.3333 24.1666V28.3333H24.1599C23.9389 28.3333 23.7269 28.4211 23.5707 28.5774C23.4144 28.7337 23.3266 28.9456 23.3266 29.1666C23.3266 29.3876 23.4144 29.5996 23.5707 29.7559C23.7269 29.9122 23.9389 30 24.1599 30H28.3333V34.1716C28.3333 34.3926 28.421 34.6046 28.5773 34.7609C28.7336 34.9172 28.9456 35.005 29.1666 35.005C29.3876 35.005 29.5996 34.9172 29.7558 34.7609C29.9121 34.6046 30.0016 34.3926 30.0016 34.1716Z" fill="#EB303B"/>
</svg>
