<svg width="39" height="39" viewBox="0 0 39 39" fill="none" xmlns="http://www.w3.org/2000/svg">
<path d="M19.5 25.75C21.1576 25.75 22.7473 25.0915 23.9194 23.9194C25.0915 22.7473 25.75 21.1576 25.75 19.5C25.75 17.8424 25.0915 16.2527 23.9194 15.0806C22.7473 13.9085 21.1576 13.25 19.5 13.25C17.8424 13.25 16.2527 13.9085 15.0806 15.0806C13.9085 16.2527 13.25 17.8424 13.25 19.5C13.25 21.1576 13.9085 22.7473 15.0806 23.9194C16.2527 25.0915 17.8424 25.75 19.5 25.75Z" fill="#0FA958"/>
<path fill-rule="evenodd" clip-rule="evenodd" d="M19.5 0.75C20.0525 0.75 20.5824 0.969493 20.9731 1.36019C21.3638 1.75089 21.5833 2.2808 21.5833 2.83333V5.0625C24.6999 5.51298 27.5871 6.95957 29.8138 9.18622C32.0404 11.4129 33.487 14.3001 33.9375 17.4167H36.1667C36.7192 17.4167 37.2491 17.6362 37.6398 18.0269C38.0305 18.4176 38.25 18.9475 38.25 19.5C38.25 20.0525 38.0305 20.5824 37.6398 20.9731C37.2491 21.3638 36.7192 21.5833 36.1667 21.5833H33.9375C33.487 24.6999 32.0404 27.5871 29.8138 29.8138C27.5871 32.0404 24.6999 33.487 21.5833 33.9375V36.1667C21.5833 36.7192 21.3638 37.2491 20.9731 37.6398C20.5824 38.0305 20.0525 38.25 19.5 38.25C18.9475 38.25 18.4176 38.0305 18.0269 37.6398C17.6362 37.2491 17.4167 36.7192 17.4167 36.1667V33.9375C14.3001 33.487 11.4129 32.0404 9.18622 29.8138C6.95957 27.5871 5.51298 24.6999 5.0625 21.5833H2.83333C2.2808 21.5833 1.75089 21.3638 1.36019 20.9731C0.969493 20.5824 0.75 20.0525 0.75 19.5C0.75 18.9475 0.969493 18.4176 1.36019 18.0269C1.75089 17.6362 2.2808 17.4167 2.83333 17.4167H5.0625C5.5133 14.3002 6.95999 11.4132 9.18659 9.18659C11.4132 6.95999 14.3002 5.5133 17.4167 5.0625V2.83333C17.4167 2.2808 17.6362 1.75089 18.0269 1.36019C18.4176 0.969493 18.9475 0.75 19.5 0.75ZM9.08333 19.5C9.08333 16.7373 10.1808 14.0878 12.1343 12.1343C14.0878 10.1808 16.7373 9.08333 19.5 9.08333C22.2627 9.08333 24.9122 10.1808 26.8657 12.1343C28.8192 14.0878 29.9167 16.7373 29.9167 19.5C29.9167 22.2627 28.8192 24.9122 26.8657 26.8657C24.9122 28.8192 22.2627 29.9167 19.5 29.9167C16.7373 29.9167 14.0878 28.8192 12.1343 26.8657C10.1808 24.9122 9.08333 22.2627 9.08333 19.5Z" fill="#0FA958"/>
</svg>
