<svg width="39" height="38" viewBox="0 0 39 38" fill="none" xmlns="http://www.w3.org/2000/svg">
<path d="M36.3673 10.9428C38.3621 15.1148 38.7408 19.8778 37.4303 24.3126C36.1198 28.7473 33.213 32.5395 29.271 34.9571C25.329 37.3748 20.6311 38.2465 16.0841 37.4041C11.5372 36.5617 7.46341 34.0649 4.64909 30.3955C1.83477 26.7262 0.479406 22.1444 0.844578 17.5345C1.20975 12.9246 3.26957 8.61336 6.6265 5.43286C9.98343 2.25236 14.3995 0.428053 19.0224 0.312045C23.6453 0.196036 28.1473 1.79654 31.6595 4.80467L35.733 0.729358C36.0028 0.459624 36.3686 0.30809 36.75 0.30809C37.1315 0.30809 37.4973 0.459624 37.7671 0.729358C38.0368 0.999091 38.1883 1.36493 38.1883 1.74639C38.1883 2.12785 38.0368 2.49369 37.7671 2.76342L20.5171 20.0134C20.2473 20.2832 19.8815 20.4347 19.5 20.4347C19.1186 20.4347 18.7527 20.2832 18.483 20.0134C18.2133 19.7437 18.0617 19.3779 18.0617 18.9964C18.0617 18.6149 18.2133 18.2491 18.483 17.9794L23.464 12.9984C22.1141 12.1056 20.5024 11.6946 18.8898 11.8318C17.2772 11.969 15.7581 12.6464 14.5784 13.7544C13.3988 14.8624 12.6276 16.3361 12.3897 17.9369C12.1518 19.5377 12.4611 21.172 13.2676 22.5752C14.0741 23.9783 15.3306 25.0682 16.8336 25.6684C18.3366 26.2686 19.9982 26.344 21.5493 25.8823C23.1005 25.4206 24.4505 24.449 25.3807 23.1246C26.3109 21.8003 26.767 20.2007 26.675 18.5849C26.6643 18.3961 26.691 18.2071 26.7535 18.0286C26.8159 17.8502 26.9128 17.6857 27.0388 17.5448C27.1648 17.4038 27.3173 17.289 27.4877 17.2069C27.658 17.1249 27.8428 17.0772 28.0316 17.0665C28.4129 17.0451 28.787 17.176 29.0718 17.4304C29.2128 17.5564 29.3276 17.7089 29.4096 17.8792C29.4917 18.0496 29.5393 18.2344 29.55 18.4232C29.681 20.7102 29.0278 22.9735 27.6983 24.839C26.3687 26.7045 24.4425 28.0604 22.2379 28.6828C20.0333 29.3052 17.6823 29.1568 15.5735 28.262C13.4647 27.3672 11.7243 25.7796 10.64 23.7617C9.55575 21.7438 9.19244 19.4163 9.61016 17.164C10.0279 14.9116 11.2016 12.8692 12.9374 11.3743C14.6732 9.87936 16.867 9.02146 19.1565 8.94235C21.4459 8.86325 23.6937 9.56767 25.5286 10.9392L29.6165 6.85131C26.6207 4.36407 22.8116 3.07134 18.9208 3.2214C15.03 3.37146 11.3318 4.95374 8.53657 7.66434C5.74129 10.3749 4.04603 14.0227 3.77639 17.9071C3.50674 21.7914 4.68172 25.6384 7.07566 28.7092C9.4696 31.7801 12.9137 33.8582 16.7464 34.5444C20.5792 35.2306 24.5303 34.4766 27.841 32.4271C31.1517 30.3777 33.5885 27.1773 34.6833 23.4407C35.7781 19.7041 35.4538 15.6947 33.7726 12.1826C33.6082 11.8386 33.5872 11.4433 33.7143 11.0837C33.8413 10.7242 34.106 10.4298 34.45 10.2654C34.7941 10.101 35.1894 10.08 35.549 10.207C35.9085 10.334 36.2029 10.5987 36.3673 10.9428Z" fill="#0FA958"/>
</svg>
