<svg width="40" height="40" viewBox="0 0 40 40" fill="none" xmlns="http://www.w3.org/2000/svg">
<path d="M21.6667 3.3833V6.74997C28.9834 7.64997 34.1667 14.3 33.2667 21.6166C32.5001 27.6833 27.7334 32.5 21.6667 33.2166V36.55C30.8334 35.6333 37.5001 27.5 36.5834 18.3333C35.8334 10.4166 29.5501 4.16663 21.6667 3.3833ZM18.3334 3.4333C15.0834 3.74997 11.9834 4.99997 9.45008 7.09997L11.8334 9.56663C13.7001 8.06663 15.9501 7.09997 18.3334 6.76663V3.4333ZM7.10008 9.44997C5.01749 11.9797 3.73524 15.0721 3.41675 18.3333H6.75008C7.06675 15.9666 8.00008 13.7166 9.48342 11.8333L7.10008 9.44997ZM3.43341 21.6666C3.76675 24.9333 5.05008 28.0166 7.11675 30.55L9.48342 28.1666C8.01149 26.2827 7.07318 24.0377 6.76675 21.6666H3.43341ZM11.8334 30.6166L9.45008 32.9C11.975 35.004 15.0657 36.3144 18.3334 36.6666V33.3333C15.9624 33.0269 13.7173 32.0886 11.8334 30.6166ZM20.8334 11.6666V20.4166L28.3334 24.8666L27.0834 26.9166L18.3334 21.6666V11.6666H20.8334Z" fill="#CA55E8"/>
</svg>
