<svg xmlns="http://www.w3.org/2000/svg" xmlns:xlink="http://www.w3.org/1999/xlink" viewBox="0 0 785.51 194.68"><defs><style>.cls-1{fill:url(#linear-gradient);}.cls-2{fill:#fcfcfc;}.cls-3{font-size:153.39px;fill:#ffffff;font-family:FONTSPRINGDEMO-LufgaSemiBoldRegular, FONTSPRING DEMO - Lufga SemiBold;font-weight:600;letter-spacing:-0.04em;}.cls-4{letter-spacing:-0.04em;}.cls-5{font-family:FONTSPRINGDEMO-LufgaMediumRegular, FONTSPRING DEMO - Lufga Medium;font-weight:500;letter-spacing:-0.04em;}</style><linearGradient id="linear-gradient" x1="97.35" y1="-25.77" x2="97.35" y2="217.29" gradientUnits="userSpaceOnUse"><stop offset="0" stop-color="#00e64a"/><stop offset="1" stop-color="#00ab37"/></linearGradient></defs><g id="Layer_2" data-name="Layer 2"><g id="Layer_1-2" data-name="Layer 1"><path class="cls-1" d="M97.35,0a97.34,97.34,0,1,0,97.34,97.34A97.35,97.35,0,0,0,97.35,0ZM59.14,123.93c0-.36.08-.72.13-1.08.08-.58.16-1.15.25-1.73l.06-.43c0-.1,0-.21,0-.31a41,41,0,0,1,2.18-6,24.21,24.21,0,0,1,5.42-6.8,17.47,17.47,0,0,1,4-2.89,28.31,28.31,0,0,1,6.73-3.21c.28.42-.15.69-.12,1a23.23,23.23,0,0,0-2.18,9.55,11.26,11.26,0,0,0,.64,3.52c.17-.77.32-1.4.47-2a35.62,35.62,0,0,1,3.78-9.9c.84-.84,1.24-2,2.12-2.81a25,25,0,0,1,8.76-7.29c.75-.39.77,0,.66.56-.14,1.43-.89,2.82-.34,4.63.9-1.62.61-3.24,1.24-4.6A9.65,9.65,0,0,1,95.1,90.3,41.87,41.87,0,0,0,99.86,83c.63-1.54,1.25-3.09,1.88-4.63.32-.76,1-.71,1.63-.63l1.73.88c.44.15.89.28,1.31.45,3,1.26,5.91,2.78,8.84,4.22,2.47,1.48,5,2.9,7.33,4.54A2.48,2.48,0,0,1,123.91,90a77.85,77.85,0,0,1-4.62,8.7c-.22.32-.34.72-.76.86a31.22,31.22,0,0,1-3.75,5.38,53.81,53.81,0,0,1-5,5.83,70.51,70.51,0,0,1-13,11,81.66,81.66,0,0,1-9.3,5.57,2.3,2.3,0,0,1-1.29.46c-.2.4-.62.47-1,.64a111.34,111.34,0,0,1-19.53,7.13c-.45.12-.89.27-1.33.41-.88,0-1.69.52-2.59.29-1.19-1.32-1.45-3-1.92-4.65l-.65-4.49ZM47.45,145.4l-2.63,2.47a.89.89,0,0,1-.93.2l-5.08-1.71a.93.93,0,0,1-.35-1.55l4.09-4a1,1,0,0,1,1-.21l3,1.08a.93.93,0,0,1,.6.65l.54,2.16A.91.91,0,0,1,47.45,145.4Zm3.2.68c-1.42.27-1.8.13-2-1s-.51-2.44-.77-3.67.66-1.44,1.53-1.68c1.18-.23,1.69.41,1.88,1.47s.37,2.18.61,3.26S51.57,145.91,50.65,146.08Zm88-28.65a4.41,4.41,0,0,1-3.15,3.46,44.87,44.87,0,0,1-12.49,4.82,37.39,37.39,0,0,1-8.34,1.33,1.71,1.71,0,0,0-1.62.64,79.45,79.45,0,0,0,11.88.53c.38,0,.77-.11,1.16-.14a46.84,46.84,0,0,0,6.87-.82c.67.08,1.31-.41,2-.09a24.54,24.54,0,0,1-2.6,4.74,8.73,8.73,0,0,1-1.85,1.89,11.71,11.71,0,0,1-6.55,3.45,55.41,55.41,0,0,1-10.91,1H107.2c0,.13,0,.25,0,.37a23.16,23.16,0,0,0,6.58,1.51,40.76,40.76,0,0,0,12-1.34,28.82,28.82,0,0,1-8.78,5.42c-4.82,2-9.72,3.64-15.06,3.26a24.94,24.94,0,0,1-4.39-.52L93,145.67c1.59,1.76,3.65,2.65,5.88,3.71a27.25,27.25,0,0,1-6,1.09,50.24,50.24,0,0,1-14.17-.67,29.64,29.64,0,0,1-7.7-2.44,3,3,0,0,0-1.09-.39,67.52,67.52,0,0,1-6.23-4.68,1.92,1.92,0,0,0-1.76-.22c-3,.56-6.68,1-9.58,1.8l-.46-2.54c3.78-.59,8.46-1.26,12.19-2.14l.31,0A94.83,94.83,0,0,0,83.86,133l4.42-2.23a101.16,101.16,0,0,0,11.58-7,96.34,96.34,0,0,0,7.81-6.58c1.33-1.3,2.61-2.65,3.92-4,.08-.14.17-.28.26-.42l.18-.19a1.66,1.66,0,0,0,.62-.72,72.38,72.38,0,0,0,6.44-8.57c1.27-2.34,2.55-4.67,3.82-7,.76-1.78,1.52-3.57,2.27-5.35.31-.65.64-.55,1.14-.14A53.55,53.55,0,0,1,132,96.3c1.09,1.63,2.33,3.15,3.3,4.87a24.91,24.91,0,0,1,3.31,9.54A23.28,23.28,0,0,1,138.7,117.43Zm9.22-21.61A40.21,40.21,0,0,1,143.29,109a.14.14,0,0,0-.1.08l-.29-.28a33.67,33.67,0,0,0-1.53-3.61,51.48,51.48,0,0,0-9.69-12.65c-1.59-1.5-3.25-2.92-4.88-4.37-2.52-1.76-5-3.65-7.56-5.28-2.41-1.51-4.92-2.8-7.45-4.09-.3-.16-.69-.21-.87-.56-1.08-.87-2.51-1-3.67-1.69l-5-2.24c-3-1.06-5.91-2.38-8.83-3.68h0c-.16-.38-.52-.51-.87-.66l-1.29-1a19.54,19.54,0,0,1-3.54-2.6c-1.13-.94-2.22-1.92-3.33-2.89v0h0a.86.86,0,0,0-.45-.63c-2-2.81-4.2-5.53-5.36-8.86-2.38-7.54.54-13.54,5.51-18.94a25,25,0,0,1,8-6,19.52,19.52,0,0,1,9.9-2.09,23.56,23.56,0,0,1,5,.64c1.39.53,2.92.71,4.17,1.59,1.62.36,3,1.37,4.47,2l.26.18.82.46a59.34,59.34,0,0,1,9.14,7.1,11,11,0,0,1,.82,1c.2.14.36.35.63.34l4.53,5c2,2.76,4.07,5.42,5.88,8.3a2.84,2.84,0,0,1,.65,1.94,32.35,32.35,0,0,0-12.1-2.58l-1.51,0-.86.12-.76.2c1.52.75,3.08,1,4.43,1.76a39,39,0,0,1,11.51,6.56l.65.56,0,0A14.77,14.77,0,0,1,142.06,65a15.84,15.84,0,0,1,3,4.65c.19.41.43.8.64,1.21.07.11.13.22.19.33a.07.07,0,0,0,0,.1c0,.13.07.27.11.41A53.62,53.62,0,0,1,147.92,95.82ZM43.82,143.44a.78.78,0,0,0-.33.07l-4.43,1.91,4.81-.33a.83.83,0,0,0,0-1.65Z"/><path class="cls-2" d="M93.47,70.58h0Z"/><path class="cls-2" d="M84.43,63.45h0v0Z"/><text class="cls-3" transform="translate(222.11 145.84)">Q<tspan class="cls-4" x="116.73" y="0">uill</tspan><tspan class="cls-5" x="298.65" y="0">hub</tspan></text></g></g></svg>